<?xml version="1.0" encoding="utf-8"?>
<!-- Generator: Adobe Illustrator 23.0.3, SVG Export Plug-In . SVG Version: 6.00 Build 0)  -->
<svg version="1.1" id="Слой_1" xmlns="http://www.w3.org/2000/svg" xmlns:xlink="http://www.w3.org/1999/xlink" x="0px" y="0px"
	 viewBox="0 0 255.1 74" style="enable-background:new 0 0 255.1 74;" xml:space="preserve">
<style type="text/css">
	.st0{fill:#FFFFFF;}
	.st1{opacity:0.5;fill:url(#SVGID_1_);}
	.st2{opacity:0.5;fill:url(#SVGID_2_);}
</style>
<title>Need For Speed Logotype</title>
<g>
	<g>
		<g>
			<g>
				<path class="st0" d="M98.2,51.2c-1.3,0-2.3-1-2.3-2.3s1-2.3,2.3-2.3s2.3,1,2.3,2.3S99.4,51.2,98.2,51.2z M98.2,47
					c-1.1,0-2,0.9-2,2s0.9,2,2,2c1.1,0,2-0.9,2-2S99.3,47,98.2,47z"/>
			</g>
			<g>
				<path class="st0" d="M98.2,49.5c-0.3,0-0.5-0.2-0.5-0.5c0-0.3,0.2-0.5,0.5-0.5c0.3,0,0.5,0.2,0.5,0.5
					C98.6,49.3,98.4,49.5,98.2,49.5z M98.2,48.7c-0.2,0-0.3,0.1-0.3,0.3c0,0.2,0.1,0.3,0.3,0.3c0.2,0,0.3-0.1,0.3-0.3
					C98.5,48.8,98.3,48.7,98.2,48.7z"/>
			</g>
			<g>
				<path class="st0" d="M97.1,50.6l0.1-1.3l-1-0.8l1.3-0.3l0.5-1.2l0.6,1.1l1.3,0.1l-0.9,0.9l0.3,1.3l-1.2-0.5L97.1,50.6z
					 M96.9,48.6l0.7,0.6l-0.1,0.9l0.8-0.5L99,50l-0.2-0.9l0.6-0.7l-0.9-0.1l-0.4-0.8l-0.3,0.8L96.9,48.6z"/>
			</g>
		</g>
		<path class="st0" d="M37.9,48.8c0-4,3.3-7.3,7.3-7.3c2.6,0,4.9,1.4,6.2,3.4c-1.2-2.5-3.8-4.3-6.9-4.3c-4.2,0-7.6,3.4-7.6,7.6
			c0,3.6,2.5,6.6,5.9,7.4C40,54.7,37.9,52,37.9,48.8z"/>
		<path class="st0" d="M29.5,38.4c0,0-2.9,1-3.3,4.7c-0.4,3.7,0-7.6,0-7.6S26.5,36.4,29.5,38.4z"/>
		<path class="st0" d="M27.5,44.6c0,0-1.8,8.6,8.9,8.1c0,0-11.4,3.2-10.7-8.1H27.5z"/>
		<path class="st0" d="M108.9,40.2c0,0-4.6-2.6-23.9-2.2c0,0-6.1-5.8-17.5-7.2c0,0-10.9-0.9-25.4,3.9c0,0-4.5,1.6-11.4,3.1
			c0,0-3.4-2.2-3.8-3.6c0,0,3.6,1.3,11.9-0.7c0,0,19.3-7,33.6-3.8c0,0,8.5,1.7,13.8,5.9C86.2,35.6,101.4,35.3,108.9,40.2z"/>
		<path class="st0" d="M112,44.6c0,0-0.8-1.9-5.9-2.1c0,0-0.1-0.6-1.6-2C104.5,40.5,109.6,39.3,112,44.6z"/>
		<path class="st0" d="M64.9,38.5h17.4c0,0-7.5-6.4-14.4-6.1c0,0,7.6,1.5,9.6,4.6L64.9,38.5z"/>
		<path class="st0" d="M62.7,38.5v-5.2c0,0-9.9-0.4-16.2,2.3c0,0,4.8-3.7,17-3.6L62.7,38.5z"/>
		<path class="st0" d="M112,45.6c0,0-5.6,5.4,1.5,7.6c0,0-4.6,0-6,0C107.6,53.2,107.4,46.1,112,45.6z"/>
		<path class="st0" d="M92.3,42.7L92.3,42.7c-13.7-6.1-24.5,5.4-42.2-2.5c0,0,10.4,15.5,36.3,7.2c0,0-11.4,7.9-30.8,0.8
			c0,0,20.7,11.3,35.9,4.8l0,0c1.1,1.3,2.6,2.3,4.3,2.7c-1.8-0.6-3.3-2-4.2-3.7c-2.3-4.8,1.2-10.4,6.6-10.4c2.6,0,4.9,1.4,6.2,3.4
			C102.1,40.4,96,39.3,92.3,42.7z"/>
		<radialGradient id="SVGID_1_" cx="98.1775" cy="48.9587" r="10.3807" gradientUnits="userSpaceOnUse">
			<stop  offset="0" style="stop-color:#4D4D4F"/>
			<stop  offset="0.2599" style="stop-color:#363335"/>
			<stop  offset="0.507" style="stop-color:#231F20"/>
			<stop  offset="0.6774" style="stop-color:#373536"/>
			<stop  offset="0.8654" style="stop-color:#474749"/>
			<stop  offset="1" style="stop-color:#4D4D4F"/>
		</radialGradient>
		<path class="st1" d="M98.2,42.6c-3.5,0-6.4,2.9-6.4,6.4s2.9,6.4,6.4,6.4c3.5,0,6.4-2.9,6.4-6.4S101.7,42.6,98.2,42.6z M98.2,53.3
			c-2.4,0-4.4-2-4.4-4.4c0-2.4,2-4.4,4.4-4.4c2.4,0,4.4,2,4.4,4.4C102.5,51.4,100.6,53.3,98.2,53.3z M101.3,44.7
			c-0.8-0.6-1.7-1-2.3-1.1c2.4,0.2,4.4,2.1,4.7,4.6l-0.5,0C103.1,46.5,102.1,45.4,101.3,44.7z"/>
		<path class="st0" d="M98.2,42.6c-3.5,0-6.4,2.9-6.4,6.4s2.9,6.4,6.4,6.4c3.5,0,6.4-2.9,6.4-6.4S101.7,42.6,98.2,42.6z M98.2,53.3
			c-2.4,0-4.4-2-4.4-4.4c0-2.4,2-4.4,4.4-4.4c2.4,0,4.4,2,4.4,4.4C102.5,51.4,100.6,53.3,98.2,53.3z M101.3,44.7
			c-0.8-0.6-1.7-1-2.3-1.1c2.4,0.2,4.4,2.1,4.7,4.6l-0.5,0C103.1,46.5,102.1,45.4,101.3,44.7z"/>
		<radialGradient id="SVGID_2_" cx="45.2535" cy="48.9587" r="10.3808" gradientUnits="userSpaceOnUse">
			<stop  offset="0" style="stop-color:#4D4D4F"/>
			<stop  offset="0.2599" style="stop-color:#363335"/>
			<stop  offset="0.507" style="stop-color:#231F20"/>
			<stop  offset="0.6774" style="stop-color:#373536"/>
			<stop  offset="0.8654" style="stop-color:#474749"/>
			<stop  offset="1" style="stop-color:#4D4D4F"/>
		</radialGradient>
		<path class="st2" d="M45.3,42.6c-3.5,0-6.4,2.9-6.4,6.4s2.9,6.4,6.4,6.4c3.5,0,6.4-2.9,6.4-6.4S48.8,42.6,45.3,42.6z M45.3,53.3
			c-2.4,0-4.4-2-4.4-4.4c0-2.4,2-4.4,4.4-4.4c2.4,0,4.4,2,4.4,4.4C49.6,51.4,47.7,53.3,45.3,53.3z M48.4,44.7
			c-0.8-0.6-1.7-1-2.3-1.1c2.4,0.2,4.4,2.1,4.7,4.6l-0.5,0C50.2,46.5,49.2,45.4,48.4,44.7z"/>
		<path class="st0" d="M45.8,42.6c-3.9-0.3-7.2,2.9-6.9,6.9c0.2,3.1,2.7,5.6,5.8,5.8c3.9,0.3,7.2-2.9,6.9-6.9
			C51.3,45.4,48.9,42.9,45.8,42.6z M45.3,53.3c-2.4,0-4.4-2-4.4-4.4c0-2.4,2-4.4,4.4-4.4c2.4,0,4.4,2,4.4,4.4
			C49.6,51.4,47.7,53.3,45.3,53.3z M48.4,44.7c-0.8-0.6-1.7-1-2.3-1.1c2.4,0.2,4.4,2.1,4.7,4.6l-0.5,0
			C50.2,46.5,49.2,45.4,48.4,44.7z"/>
		<g>
			<g>
				<path class="st0" d="M45.3,51.2c-1.3,0-2.3-1-2.3-2.3c0-1.3,1-2.3,2.3-2.3c1.3,0,2.3,1,2.3,2.3C47.6,50.2,46.5,51.2,45.3,51.2z
					 M45.3,46.9c-1.1,0-2,0.9-2,2c0,1.1,0.9,2,2,2c1.1,0,2-0.9,2-2C47.3,47.8,46.4,46.9,45.3,46.9z"/>
			</g>
			<g>
				<path class="st0" d="M45.3,49.4c-0.3,0-0.5-0.2-0.5-0.5c0-0.3,0.2-0.5,0.5-0.5c0.3,0,0.5,0.2,0.5,0.5
					C45.7,49.2,45.5,49.4,45.3,49.4z M45.3,48.6c-0.2,0-0.3,0.1-0.3,0.3c0,0.2,0.1,0.3,0.3,0.3c0.2,0,0.3-0.1,0.3-0.3
					C45.6,48.8,45.4,48.6,45.3,48.6z"/>
			</g>
			<g>
				<path class="st0" d="M44.2,50.6l0.1-1.3l-1-0.8l1.3-0.3l0.5-1.2l0.6,1.1l1.3,0.1l-0.9,0.9l0.3,1.3l-1.2-0.5L44.2,50.6z M44,48.6
					l0.7,0.6l-0.1,0.9l0.8-0.5l0.8,0.4l-0.2-0.9l0.6-0.7l-0.9-0.1l-0.4-0.8l-0.3,0.8L44,48.6z"/>
			</g>
		</g>
	</g>
</g>
<g>
	<path class="st0" d="M136.8,55.5h-4.3l-0.3-2.5H128l-1.1,2.5h-4.3l6.5-13.2h5.4L136.8,55.5z M131.8,50.1l-0.6-4.2l-1.9,4.2H131.8z"
		/>
	<path class="st0" d="M146.7,46.7l-1.3,2.2c-0.6-0.3-1.2-0.5-1.7-0.5c-0.7,0-1.1,0.2-1.1,0.5c0,0.2,0.1,0.4,0.3,0.5
		c0.2,0.1,0.6,0.2,1.1,0.3c1.4,0.2,2.2,1,2.2,2.3c0,0.2,0,0.3,0,0.5c-0.1,0.9-0.6,1.6-1.3,2.2c-0.9,0.8-2.2,1.2-3.7,1.2
		c-0.7,0-1.4-0.1-2-0.3c-0.7-0.2-1.2-0.4-1.6-0.7l1.5-2.5c0.7,0.6,1.5,0.8,2.3,0.8c0.6,0,1-0.2,1-0.5c0,0,0-0.1,0-0.1
		c0-0.3-0.4-0.5-1.2-0.7c-1.6-0.3-2.3-1-2.3-2.1c0-0.2,0-0.3,0-0.5c0.2-1,0.6-1.8,1.5-2.3c0.9-0.6,1.9-0.9,3.3-0.9
		C144.7,46,145.8,46.2,146.7,46.7z"/>
	<path class="st0" d="M160.1,46.4l-8.6,13.8h-3.9l3.4-5.2l-3.2-8.6h4.3l1.4,4.8l2.8-4.8H160.1z"/>
	<path class="st0" d="M169.3,49.9l-0.9,5.6h-3.7l0.8-5.1c0-0.2,0-0.3,0-0.5c0-0.6-0.3-1-0.9-1c-0.9,0-1.4,0.6-1.6,1.9l-0.7,4.7h-3.8
		l1.4-9.1h3.7l-0.2,1.2c0.9-1,1.9-1.6,3.1-1.6c0.9,0,1.5,0.2,2,0.7c0.5,0.5,0.8,1.2,0.8,2.2C169.4,49.2,169.4,49.6,169.3,49.9z"/>
	<path class="st0" d="M178.8,46.5l-0.5,3.1c-0.5-0.4-1-0.6-1.6-0.6c-0.5,0-1,0.2-1.4,0.5c-0.4,0.4-0.7,0.8-0.8,1.4
		c0,0.1,0,0.2,0,0.3c0,0.5,0.2,0.8,0.5,1.1c0.3,0.3,0.7,0.4,1.2,0.4c0.6,0,1.2-0.2,1.7-0.5l-0.5,3.1c-0.8,0.3-1.6,0.5-2.4,0.5
		c-1.3,0-2.4-0.4-3.1-1.1s-1.2-1.7-1.2-2.9c0-0.3,0-0.6,0.1-0.9c0.2-1.4,0.9-2.6,2-3.5c1.1-0.9,2.4-1.4,3.9-1.4
		C177.3,46,178.1,46.2,178.8,46.5z"/>
	<path class="st0" d="M186,51.5h-6.3v-2.9h6.3V51.5z"/>
	<path class="st0" d="M198.8,46.7c-0.1,0.8-0.5,1.5-1,2.2c-0.6,0.7-1.3,1.1-2.1,1.3l2.7,5.3h-4.9l-1.7-4.7l-0.1,0l-0.8,4.8h-4.1
		l2.1-13.2h5.5c1.4,0,2.4,0.3,3.2,0.9c0.8,0.6,1.2,1.5,1.2,2.6C198.9,46.1,198.8,46.4,198.8,46.7z M194.6,46.7c0-0.1,0-0.2,0-0.3
		c0-0.8-0.5-1.2-1.5-1.2h-0.6l-0.5,2.9h0.5C193.8,48.2,194.5,47.7,194.6,46.7z"/>
	<path class="st0" d="M211,46.4l-1.4,9.1H206l0.2-1.2c-0.8,1-1.9,1.5-3.2,1.5c-1.1,0-2-0.4-2.7-1.1c-0.7-0.7-1-1.7-1-2.9
		c0-0.3,0-0.6,0.1-1c0.2-1.5,0.9-2.7,1.8-3.6c0.9-0.9,2-1.3,3.3-1.3c1.3,0,2.2,0.5,2.7,1.4l0.2-1.1H211z M206.7,50.9
		c0-0.1,0-0.2,0-0.4c0-0.5-0.1-0.8-0.4-1.1c-0.3-0.3-0.7-0.4-1.1-0.4c-0.6,0-1,0.2-1.4,0.5c-0.4,0.3-0.6,0.8-0.7,1.4
		c0,0.1,0,0.3,0,0.4c0,1,0.5,1.5,1.6,1.5c0.5,0,1-0.2,1.4-0.5C206.4,51.9,206.6,51.5,206.7,50.9z"/>
	<path class="st0" d="M219.9,46.5l-0.5,3.1c-0.5-0.4-1-0.6-1.6-0.6c-0.5,0-1,0.2-1.4,0.5c-0.4,0.4-0.7,0.8-0.8,1.4
		c0,0.1,0,0.2,0,0.3c0,0.5,0.2,0.8,0.5,1.1c0.3,0.3,0.7,0.4,1.2,0.4c0.6,0,1.2-0.2,1.7-0.5l-0.5,3.1c-0.8,0.3-1.6,0.5-2.4,0.5
		c-1.3,0-2.4-0.4-3.1-1.1s-1.2-1.7-1.2-2.9c0-0.3,0-0.6,0.1-0.9c0.2-1.4,0.9-2.6,2-3.5c1.1-0.9,2.4-1.4,3.9-1.4
		C218.5,46,219.2,46.2,219.9,46.5z"/>
	<path class="st0" d="M230.8,51.2l-0.1,0.4H224c0,0.1,0,0.3,0,0.4c0,1,0.5,1.5,1.4,1.5c0.8,0,1.3-0.3,1.6-0.9l3.1,0.6
		c-1.1,1.7-2.9,2.6-5.3,2.6c-1.4,0-2.5-0.4-3.3-1.1c-0.7-0.7-1.1-1.7-1.1-2.9c0-0.3,0-0.6,0.1-0.9c0.2-1.5,0.9-2.6,2-3.5
		c1.1-0.9,2.4-1.3,4-1.3c1.5,0,2.7,0.4,3.5,1.3c0.6,0.7,1,1.7,1,2.9C230.9,50.5,230.9,50.8,230.8,51.2z M227.6,49.7
		c0-0.4-0.1-0.8-0.3-1c-0.3-0.3-0.6-0.5-1-0.5c-0.9,0-1.5,0.5-1.9,1.5H227.6z"/>
</g>
</svg>
