<?xml version="1.0" encoding="utf-8"?>
<!-- Generator: Adobe Illustrator 23.0.3, SVG Export Plug-In . SVG Version: 6.00 Build 0)  -->
<svg version="1.1" id="Слой_1" xmlns="http://www.w3.org/2000/svg" xmlns:xlink="http://www.w3.org/1999/xlink" x="0px" y="0px"
	 viewBox="0 0 538 74" style="enable-background:new 0 0 538 74;" xml:space="preserve">
<style type="text/css">
	.st0{fill:#FFFFFF;}
</style>
<title>Need For Speed Logotype</title>
<g>
	<path class="st0" d="M76.5,40.9l20.2-24.8c1.5-1.8,2.6-2.9,3.4-3.4c0.8-0.5,1.7-0.8,2.7-0.8l7.1-0.5c0.8-0.1,1.3,0,1.7,0.3
		c0.3,0.3,0.5,0.9,0.5,2l-0.9,31.6c-0.1,2.1,0.1,3.5,0.5,4.2c0.4,0.7,1.2,1.1,2.4,1.4c1.3,0.2,2.1,0.5,2.4,0.7s0.4,0.7,0.4,1.2
		c0,0.7-0.2,1.3-0.6,1.6c-0.4,0.3-1.1,0.5-2.2,0.5c-1.3,0-3.3-0.1-6-0.2c-2.6-0.1-4.6-0.2-5.9-0.2c-1.2,0-3.1,0.1-5.6,0.2
		s-4.5,0.2-5.9,0.2c-0.7,0-1.2-0.1-1.6-0.4c-0.3-0.3-0.5-0.7-0.5-1.3c0-0.5,0.2-0.9,0.6-1.2s1.2-0.6,2.4-0.7
		c2.1-0.3,3.3-0.7,3.8-1.2c0.4-0.5,0.7-1.9,0.8-4.2l0.1-2.4c0-0.9,0-1.5-0.2-1.8c-0.2-0.4-0.7-0.5-1.5-0.5h-9.3
		c-1,0-1.7,0.2-2.3,0.5c-0.6,0.4-1.2,1-1.8,1.9c-0.8,1.1-1.4,2.1-1.9,3.1c-0.5,1-0.8,1.8-0.8,2.3c0,0.5,0.1,1,0.4,1.3
		s0.9,0.5,1.9,0.7c0.8,0.2,1.3,0.4,1.6,0.7c0.3,0.3,0.5,0.8,0.5,1.3c0,0.7-0.3,1.2-0.8,1.5c-0.5,0.3-1.4,0.5-2.5,0.5
		c-0.7,0-1.8-0.1-3.2-0.2c-1.4-0.1-2.5-0.2-3.2-0.2c-0.7,0-1.9,0.1-3.4,0.2c-1.5,0.1-2.7,0.2-3.4,0.2c-0.9,0-1.5-0.1-1.9-0.4
		c-0.4-0.3-0.6-0.7-0.6-1.3c0-0.5,0.1-0.9,0.4-1.2s0.8-0.6,1.5-0.8c1.1-0.3,2-0.8,2.7-1.3s1.4-1.2,2.2-2.1c0.2-0.2,0.4-0.4,0.6-0.6
		S73.3,44.9,76.5,40.9z M94.9,25.8L88,34.2c-0.6,0.7-0.9,1.1-0.9,1.2c0,0.1-0.1,0.2-0.1,0.3c0,0.2,0.1,0.3,0.2,0.4
		c0.1,0.1,0.3,0.1,0.6,0.1h6.4c0.9,0,1.5-0.2,1.9-0.5c0.4-0.3,0.6-0.9,0.6-1.8l0.5-7.7c0-0.6,0-1.1-0.1-1.5
		c-0.1-0.4-0.2-0.6-0.3-0.6c-0.2,0-0.4,0.2-0.8,0.6S95.2,25.5,94.9,25.8z"/>
	<path class="st0" d="M122.4,35.4c0-3.1,1.5-5.6,4.4-7.6c2.9-1.9,6.7-2.9,11.4-2.9c3.8,0,6.5,0.3,8.1,1c1.7,0.7,2.5,1.7,2.5,3
		c0,1.3-0.4,2.7-1.1,4c-0.8,1.3-1.8,2-3.1,2c-1,0-1.7-0.2-2.3-0.7c-0.6-0.5-1.2-1.4-1.8-2.6c-0.7-1.6-1.3-2.6-1.6-2.8
		c-0.4-0.2-0.8-0.4-1.4-0.4c-1,0-1.7,0.2-2.1,0.7s-0.7,1.2-0.7,2.1c0,0.6,0.2,1.3,0.7,2c0.4,0.7,2.2,2.1,5.4,4.3
		c2.2,1.5,3.6,2.7,4.2,3.7c0.6,1,1,2.2,1,3.5c0,3.2-1.5,5.9-4.5,8.1c-3,2.2-7,3.3-12.1,3.3c-4,0-7.2-0.4-9.5-1.3
		c-2.3-0.9-3.5-2.2-3.5-4.1c0-1.8,0.4-3.4,1.2-4.8s1.9-2,3.2-2c0.7,0,1.2,0.1,1.7,0.4c0.5,0.3,1.3,1.4,2.5,3.5
		c1,1.7,1.9,2.9,2.6,3.5c0.8,0.6,1.7,1,2.8,1c1,0,1.7-0.3,2.3-0.8c0.5-0.5,0.8-1.1,0.8-1.9c0-0.4-0.1-0.7-0.3-1.1
		c-0.2-0.4-2.2-2.1-6.1-5.2c-1.8-1.4-3-2.7-3.7-4C122.7,38.2,122.4,36.8,122.4,35.4z"/>
	<path class="st0" d="M172.2,46l0.1,2.3c1.6-2.2,3.1-4.6,4.4-7.2c1.3-2.5,1.9-4.5,1.9-5.9c0-0.6-0.1-1.1-0.2-1.5
		c-0.1-0.4-0.4-0.8-0.8-1.2c-0.5-0.6-0.9-1.1-1.1-1.6c-0.2-0.4-0.3-0.9-0.3-1.3c0-1.3,0.5-2.4,1.4-3.3c1-0.9,2.1-1.4,3.5-1.4
		c1.6,0,2.8,0.4,3.6,1.1c0.8,0.7,1.1,1.8,1.1,3.2c0,2.5-1,5.5-2.9,9.2c-1.9,3.7-5,8.1-9.2,13.2c-5.2,6.3-9.7,11-13.6,14
		c-3.9,3-7.3,4.5-10.3,4.5c-1.6,0-2.9-0.5-4-1.5s-1.6-2.3-1.6-3.8c0-1.3,0.4-2.3,1.3-3.1c0.9-0.8,2.1-1.2,3.6-1.2
		c0.7,0,1.3,0.1,1.8,0.3c0.5,0.2,1.1,0.6,1.7,1.2c0.7,0.6,1.3,1,1.6,1.2s0.7,0.2,1.1,0.2c1.9,0,3.2-1.1,3.9-3.3
		c0.7-2.2,0.6-6.2-0.4-12.1l-1.1-7.2c-0.4-2.2-0.7-3.9-1.1-5.2s-0.8-1.9-1.2-1.9c-0.2,0-0.4,0.1-0.6,0.4c-0.2,0.3-0.5,0.7-0.8,1.4
		l-0.6,1c-0.5,1-0.9,1.6-1.2,1.8c-0.3,0.2-0.6,0.3-1,0.3c-0.5,0-0.9-0.1-1.2-0.4c-0.3-0.3-0.5-0.7-0.5-1.3c0-0.4,0.1-1,0.4-1.6
		c0.3-0.7,0.7-1.5,1.3-2.4c1.4-2.3,3.1-4.1,5.2-5.6c2.1-1.4,4.2-2.2,6.4-2.2c2.9,0,5,1.7,6.4,5C170.9,33.2,171.8,38.6,172.2,46z"/>
	<path class="st0" d="M188.8,49.9l4.3-13.1c0.2-0.7,0.4-1.2,0.5-1.7c0.1-0.4,0.2-0.8,0.2-1.1c0-0.2,0-0.4-0.1-0.5
		c-0.1-0.1-0.2-0.2-0.4-0.2c-0.2,0-0.6,0.2-1,0.6c-0.4,0.4-1,1-1.7,1.8c-0.7,0.8-1.2,1.3-1.6,1.6c-0.4,0.2-0.7,0.4-1.1,0.4
		c-0.4,0-0.7-0.1-1-0.4c-0.3-0.3-0.4-0.6-0.4-1c0-0.4,0.1-0.7,0.3-1.2c0.2-0.4,0.6-1,1.1-1.7c2.2-2.9,4.6-5.1,7.1-6.5
		c2.5-1.4,4.8-2.1,7-2.1c1.5,0,2.6,0.4,3.4,1.2c0.7,0.8,1.1,1.9,1.1,3.2c0,0.7-0.2,1.7-0.5,3c-0.3,1.3-0.8,2.7-1.5,4.5h0.4
		c1.7-3.5,4.1-6.4,7.1-8.6c3-2.2,5.9-3.3,8.8-3.3c2.2,0,3.9,0.6,5.1,1.9c1.2,1.2,1.8,2.9,1.8,5c0,1.2-0.2,2.7-0.7,4.4
		c-0.5,1.7-1.2,3.9-2.2,6.3l-1.1,2.6c-0.2,0.5-0.3,0.8-0.3,0.9c0,0.1,0,0.2,0,0.2c0,0.2,0,0.4,0.1,0.5s0.2,0.2,0.5,0.2
		c0.5,0,1.1-0.3,1.8-0.9s1.6-1.8,2.8-3.4c0.4-0.6,0.7-1,1-1.2c0.3-0.2,0.6-0.3,0.9-0.3c0.4,0,0.7,0.2,1,0.5c0.3,0.3,0.4,0.7,0.4,1.3
		c0,0.5-0.1,1-0.3,1.5c-0.2,0.5-0.6,1.1-1,1.7c-2.6,3.4-5.3,6-8.1,7.6c-2.8,1.6-5.6,2.4-8.5,2.4c-2,0-3.4-0.3-4.2-1
		c-0.8-0.6-1.2-1.6-1.2-3c0-0.5,0.1-1.2,0.2-1.8c0.1-0.7,0.5-1.8,1-3.3l3-8.5c0.4-1.1,0.7-2,0.8-2.5c0.2-0.6,0.2-1,0.2-1.3
		c0-0.3-0.1-0.6-0.2-0.7c-0.1-0.2-0.3-0.3-0.5-0.3c-0.9,0-2.5,1.4-4.7,4.3c-2.2,2.9-3.8,5.7-4.8,8.6l-1.5,4.4
		c-0.6,1.7-1.2,2.7-1.8,3.2s-1.5,0.7-2.6,0.7h-6.4c-1.3,0-2.1-0.2-2.5-0.5c-0.4-0.3-0.6-0.8-0.6-1.4c0-0.2,0-0.4,0.1-0.6
		C188.1,52.2,188.4,51.4,188.8,49.9z"/>
	<path class="st0" d="M234.1,45c0-5.6,2.4-10.3,7.1-14.2c4.7-3.9,10.1-5.9,16.2-5.9c2.9,0,5.2,0.4,6.9,1.3s2.5,2.1,2.5,3.6
		c0,1.4-0.5,2.6-1.4,3.6c-1,1-2.1,1.5-3.5,1.5c-1.2,0-2.2-0.3-3-0.8s-1.5-1.4-2.1-2.5c-0.9-1.7-1.4-2.6-1.5-2.7s-0.2-0.1-0.3-0.1
		c-0.2,0-0.4,0.1-0.6,0.4c-0.3,0.3-0.5,0.6-0.9,1.1c-1.7,2.5-3,5-4,7.5c-1,2.6-1.5,4.9-1.5,7c0,1.5,0.3,2.6,0.8,3.2
		c0.6,0.6,1.4,0.9,2.5,0.9c1.4,0,2.8-0.5,4.2-1.6s3-2.7,4.7-5.1c0.3-0.5,0.6-0.7,0.8-0.8c0.2-0.1,0.5-0.2,0.7-0.2
		c0.7,0,1.1,0.3,1.3,0.8c0.2,0.6,0,1.4-0.5,2.5c-1.2,3-3.4,5.7-6.5,8c-3.1,2.3-6.8,3.4-11.1,3.4c-3.4,0-6.1-1-8-3.1
		S234.1,48.3,234.1,45z"/>
	<path class="st0" d="M273.4,34.6h18.2c0.6,0,1,0.1,1.1,0.4c0.1,0.2,0.1,0.6,0,1l-1.5,4.7c-0.2,0.7-0.5,1.2-0.8,1.4
		s-0.8,0.4-1.5,0.4h-18.2c-0.6,0-1-0.1-1.1-0.4c-0.1-0.2-0.2-0.6,0-1l1.5-4.7c0.2-0.7,0.5-1.2,0.8-1.4S272.7,34.6,273.4,34.6z"/>
	<path class="st0" d="M301.3,45.9l6.9-24.2c0.2-0.7,0.4-1.2,0.4-1.5c0.1-0.3,0.1-0.5,0.1-0.7c0-0.8-0.3-1.3-0.8-1.8
		s-1.3-0.7-2.4-0.8c-1.1-0.1-1.8-0.3-2-0.6c-0.2-0.3-0.3-0.7-0.3-1.3c0-0.8,0.3-1.3,0.8-1.7c0.5-0.3,1.6-0.5,3.1-0.5
		c1.6,0,4.1,0.1,7.3,0.2s5.7,0.2,7.3,0.2c1.6,0,4-0.1,7.2-0.2s5.6-0.2,7.3-0.2c4.1,0,7.2,0.8,9.1,2.4s2.9,3.8,2.9,6.7
		c0,3.6-1.4,6.4-4.1,8.6c-2.8,2.2-6.1,3.4-10,3.8v0.3c1.3,0,2.4,0.4,3.2,1.1c0.8,0.7,1.4,1.7,1.9,3.1l2.4,7.4c0.4,1.3,1,2.3,1.7,3.1
		s1.6,1.4,2.5,1.6c1.1,0.3,1.8,0.5,2,0.8s0.4,0.7,0.4,1.3c0,0.6-0.2,1.1-0.6,1.3s-1.1,0.4-2.1,0.4c-0.9,0-2.2-0.1-4-0.2
		s-3-0.2-3.9-0.2c-0.7,0-1.9,0.1-3.4,0.2s-2.7,0.2-3.5,0.2c-1.3,0-2.1-0.2-2.6-0.6s-1-1.5-1.5-3.2l-3.3-11c-0.3-1-0.6-1.7-1-2.1
		c-0.3-0.4-0.9-0.6-1.6-0.6c-0.6,0-1,0.1-1.2,0.3s-0.4,0.8-0.7,1.9l-2,6.7c-0.2,0.6-0.3,1-0.4,1.4c-0.1,0.4-0.1,0.6-0.1,0.8
		c0,0.8,0.3,1.3,0.8,1.8s1.3,0.7,2.4,0.8c1.1,0.1,1.8,0.3,2,0.6s0.3,0.7,0.3,1.3c0,0.8-0.3,1.3-0.8,1.7s-1.6,0.5-3.1,0.5
		c-1.2,0-2.9-0.1-5.3-0.2s-4.1-0.2-5.3-0.2c-1.2,0-3.1,0.1-5.6,0.2s-4.3,0.2-5.6,0.2c-1.1,0-1.9-0.2-2.4-0.6s-0.7-0.9-0.7-1.6
		c0-0.6,0.2-1,0.6-1.3c0.4-0.3,1.1-0.5,2.1-0.6c2.1-0.2,3.4-0.6,3.9-1.1S300.8,47.8,301.3,45.9z M324.9,18.9l-3.7,12.4
		c-0.2,0.7-0.2,1.2,0,1.4c0.2,0.2,0.6,0.3,1.1,0.3c2,0,4.1-1.2,6.4-3.6c2.3-2.4,3.4-4.9,3.4-7.5c0-1.5-0.5-2.6-1.5-3.4
		c-1-0.8-2.3-1.2-3.8-1.2c-0.6,0-1,0.1-1.3,0.3C325.3,17.9,325.1,18.3,324.9,18.9z"/>
	<path class="st0" d="M389.2,29.5l-4.4,13.2c-0.1,0.3-0.2,0.7-0.3,1.1c-0.1,0.5-0.1,0.8-0.1,1.1s0.1,0.4,0.2,0.6s0.3,0.2,0.5,0.2
		c0.2,0,0.5-0.1,0.7-0.3c0.3-0.2,1.1-1.1,2.6-2.9c0.4-0.5,0.8-0.9,1.1-1.1s0.6-0.3,0.9-0.3c0.4,0,0.8,0.1,1.1,0.4s0.4,0.6,0.4,1.1
		c0,0.4-0.1,0.9-0.4,1.4c-0.2,0.5-0.7,1.2-1.3,2.1c-2.6,3.6-5.1,6.1-7.6,7.6s-5.2,2.2-8.2,2.2c-1.5,0-2.7-0.4-3.3-1.2s-1-2-1-3.6
		c0-0.9,0.1-2,0.4-3.2c0.3-1.2,0.7-2.6,1.2-4l-0.1-0.1c-2.8,3.9-5.5,6.9-8.2,9s-5.3,3.1-7.9,3.1c-2,0-3.4-0.7-4.4-2
		s-1.5-3.1-1.5-5.3c0-1.9,0.4-3.8,1.1-5.8s1.8-3.9,3.2-6c2.4-3.5,5.2-6.1,8.4-8.1s6.2-2.9,9.2-2.9c0.5,0,1,0,1.5,0.1s1,0.2,1.4,0.4
		c0,0,0.2,0.1,0.5,0.2s0.7,0.2,0.9,0.2c0.3,0,0.5-0.1,0.8-0.2s0.5-0.3,0.8-0.6c0.6-0.6,1.1-1,1.5-1.1s1-0.2,1.8-0.2h7.3
		c0.7,0,1.2,0.1,1.5,0.4c0.3,0.3,0.4,0.7,0.4,1.2c0,0.3-0.1,0.8-0.2,1.4C389.5,28.5,389.3,29,389.2,29.5z M363.3,43.3
		c0,0.6,0.1,1.1,0.4,1.5s0.7,0.6,1.2,0.6c1.2,0,3.3-1.9,6.2-5.6c2.9-3.7,4.3-6.5,4.3-8.3c0-0.4-0.1-0.7-0.3-0.9s-0.5-0.3-1-0.3
		c-1.7,0-3.9,1.6-6.7,4.9C364.7,38.5,363.3,41.2,363.3,43.3z"/>
	<path class="st0" d="M393.9,45c0-5.6,2.4-10.3,7.1-14.2c4.7-3.9,10.1-5.9,16.2-5.9c2.9,0,5.2,0.4,6.9,1.3s2.5,2.1,2.5,3.6
		c0,1.4-0.5,2.6-1.4,3.6s-2.1,1.5-3.5,1.5c-1.2,0-2.2-0.3-3-0.8s-1.5-1.4-2.1-2.5c-0.9-1.7-1.4-2.6-1.5-2.7s-0.2-0.1-0.3-0.1
		c-0.2,0-0.4,0.1-0.6,0.4c-0.3,0.3-0.5,0.6-0.9,1.1c-1.7,2.5-3,5-4,7.5c-1,2.6-1.5,4.9-1.5,7c0,1.5,0.3,2.6,0.8,3.2
		c0.6,0.6,1.4,0.9,2.5,0.9c1.4,0,2.8-0.5,4.2-1.6s3-2.7,4.7-5.1c0.3-0.5,0.6-0.7,0.8-0.8c0.2-0.1,0.5-0.2,0.7-0.2
		c0.7,0,1.1,0.3,1.3,0.8s0,1.4-0.5,2.5c-1.2,3-3.4,5.7-6.5,8c-3.1,2.3-6.8,3.4-11.1,3.4c-3.4,0-6.1-1-8-3.1S393.9,48.3,393.9,45z"/>
	<path class="st0" d="M427.8,46.1c0-5.7,2.3-10.7,6.9-14.9c4.6-4.2,9.9-6.3,15.9-6.3c3.2,0,5.6,0.6,7.4,1.7s2.6,2.8,2.6,4.9
		c0,3-1.7,5.4-5,7.2c-3.3,1.8-7.9,3-13.7,3.6c-0.1,0.4-0.2,0.8-0.2,1.2c0,0.4-0.1,0.8-0.1,1.1c0,1.3,0.3,2.3,1,3.1
		c0.7,0.8,1.6,1.2,2.8,1.2c1.1,0,2.2-0.3,3.3-0.9c1.1-0.6,2.6-1.8,4.5-3.6c0.7-0.7,1.2-1.1,1.6-1.3s0.6-0.3,0.8-0.3
		c0.4,0,0.7,0.1,1,0.4c0.3,0.2,0.5,0.6,0.5,1.1c0,0.3-0.1,0.7-0.3,1.2c-0.2,0.5-0.5,1-1,1.6c-1.9,2.8-4.3,5-7.3,6.6
		c-2.9,1.6-6.2,2.5-9.8,2.5c-3.6,0-6.3-0.9-8.1-2.7C428.7,51.5,427.8,49.1,427.8,46.1z M442.6,38.6c2.5-0.7,4.5-1.8,6-3.5
		c1.6-1.7,2.3-3.2,2.3-4.7c0-0.6-0.1-1-0.4-1.3s-0.7-0.4-1.2-0.4c-1.2,0-2.4,1-3.8,3C444.2,33.8,443.2,36,442.6,38.6z"/>
</g>
</svg>
